<svg xmlns="http://www.w3.org/2000/svg" xmlns:xlink="http://www.w3.org/1999/xlink" width="40" zoomAndPan="magnify" viewBox="0 0 30 30.000001" height="40" preserveAspectRatio="xMidYMid meet" version="1.0"><defs><clipPath id="725ec2ac67"><path d="M 3.386719 2.066406 L 16 2.066406 L 16 19 L 3.386719 19 Z M 3.386719 2.066406 " clip-rule="nonzero"/></clipPath><clipPath id="a56ebedda5"><path d="M 12 25 L 18 25 L 18 26.742188 L 12 26.742188 Z M 12 25 " clip-rule="nonzero"/></clipPath><clipPath id="6fc87d9e50"><path d="M 18 14 L 28 14 L 28 26.742188 L 18 26.742188 Z M 18 14 " clip-rule="nonzero"/></clipPath><clipPath id="f78ee56ec5"><path d="M 14 2.066406 L 18 2.066406 L 18 5 L 14 5 Z M 14 2.066406 " clip-rule="nonzero"/></clipPath></defs><path fill="#00a0cb" d="M 9.425781 19.6875 C 9.3125 19.6875 9.203125 19.636719 9.128906 19.539062 C 6.808594 16.46875 7.117188 12.101562 9.839844 9.378906 C 12.863281 6.351562 17.789062 6.351562 20.816406 9.378906 C 20.960938 9.523438 20.960938 9.757812 20.816406 9.902344 C 20.671875 10.046875 20.4375 10.046875 20.292969 9.902344 C 17.554688 7.167969 13.101562 7.164062 10.367188 9.902344 C 7.90625 12.363281 7.628906 16.316406 9.722656 19.089844 C 9.847656 19.257812 9.816406 19.488281 9.652344 19.613281 C 9.582031 19.660156 9.503906 19.6875 9.425781 19.6875 Z M 9.425781 19.6875 " fill-opacity="1" fill-rule="nonzero"/><path fill="#00a0cb" d="M 14.675781 22.597656 C 14.664062 22.597656 14.652344 22.597656 14.640625 22.59375 C 13.097656 22.460938 11.652344 21.875 10.453125 20.90625 C 10.292969 20.777344 10.265625 20.542969 10.394531 20.382812 C 10.527344 20.226562 10.757812 20.199219 10.917969 20.328125 C 12 21.203125 13.3125 21.734375 14.707031 21.855469 C 14.910156 21.871094 15.058594 22.050781 15.042969 22.257812 C 15.027344 22.449219 14.863281 22.597656 14.675781 22.597656 Z M 14.675781 22.597656 " fill-opacity="1" fill-rule="nonzero"/><path fill="#00a0cb" d="M 15.746094 22.613281 C 15.550781 22.613281 15.386719 22.464844 15.375 22.265625 C 15.363281 22.058594 15.519531 21.886719 15.722656 21.871094 C 17.449219 21.777344 19.074219 21.050781 20.292969 19.832031 C 20.4375 19.6875 20.671875 19.6875 20.816406 19.832031 C 20.960938 19.976562 20.960938 20.210938 20.816406 20.355469 C 19.46875 21.707031 17.675781 22.507812 15.765625 22.613281 C 15.761719 22.613281 15.753906 22.613281 15.746094 22.613281 Z M 15.746094 22.613281 " fill-opacity="1" fill-rule="nonzero"/><path fill="#00a0cb" d="M 21.011719 11.371094 C 20.367188 11.371094 19.839844 10.84375 19.839844 10.203125 C 19.839844 9.558594 20.367188 9.03125 21.011719 9.03125 C 21.652344 9.03125 22.179688 9.558594 22.179688 10.203125 C 22.179688 10.84375 21.652344 11.371094 21.011719 11.371094 Z M 21.011719 9.777344 C 20.777344 9.777344 20.585938 9.96875 20.585938 10.203125 C 20.585938 10.433594 20.777344 10.625 21.011719 10.625 C 21.242188 10.625 21.433594 10.433594 21.433594 10.203125 C 21.4375 9.96875 21.246094 9.777344 21.011719 9.777344 Z M 21.011719 9.777344 " fill-opacity="1" fill-rule="nonzero"/><path fill="#00a0cb" d="M 21.011719 20.703125 C 20.367188 20.703125 19.839844 20.179688 19.839844 19.535156 C 19.839844 18.890625 20.367188 18.367188 21.011719 18.367188 C 21.652344 18.367188 22.179688 18.890625 22.179688 19.535156 C 22.179688 20.179688 21.652344 20.703125 21.011719 20.703125 Z M 21.011719 19.113281 C 20.777344 19.113281 20.585938 19.300781 20.585938 19.535156 C 20.585938 19.769531 20.777344 19.957031 21.011719 19.957031 C 21.242188 19.957031 21.433594 19.769531 21.433594 19.535156 C 21.4375 19.300781 21.246094 19.113281 21.011719 19.113281 Z M 21.011719 19.113281 " fill-opacity="1" fill-rule="nonzero"/><path fill="#00c0e4" d="M 15.328125 20.570312 C 12.183594 20.570312 9.621094 18.011719 9.621094 14.867188 C 9.621094 11.71875 12.183594 9.160156 15.328125 9.160156 C 15.535156 9.160156 15.703125 9.328125 15.703125 9.53125 C 15.703125 9.738281 15.535156 9.90625 15.328125 9.90625 C 12.589844 9.90625 10.367188 12.128906 10.367188 14.867188 C 10.367188 17.605469 12.589844 19.832031 15.328125 19.832031 C 18.066406 19.832031 20.292969 17.605469 20.292969 14.867188 C 20.292969 14.660156 20.460938 14.492188 20.664062 14.492188 C 20.871094 14.492188 21.039062 14.660156 21.039062 14.867188 C 21.035156 18.011719 18.476562 20.570312 15.328125 20.570312 Z M 15.328125 20.570312 " fill-opacity="1" fill-rule="nonzero"/><path fill="#00c0e4" d="M 20.664062 15.238281 C 20.019531 15.238281 19.492188 14.714844 19.492188 14.070312 C 19.492188 13.425781 20.019531 12.902344 20.664062 12.902344 C 21.304688 12.902344 21.832031 13.425781 21.832031 14.070312 C 21.832031 14.714844 21.304688 15.238281 20.664062 15.238281 Z M 20.664062 13.648438 C 20.429688 13.648438 20.238281 13.835938 20.238281 14.074219 C 20.238281 14.304688 20.429688 14.496094 20.664062 14.496094 C 20.894531 14.496094 21.085938 14.304688 21.085938 14.074219 C 21.089844 13.835938 20.898438 13.648438 20.664062 13.648438 Z M 20.664062 13.648438 " fill-opacity="1" fill-rule="nonzero"/><g clip-path="url(#725ec2ac67)"><path fill="#3d4b8d" d="M 4.34375 18.65625 C 4.183594 18.65625 4.039062 18.554688 3.988281 18.394531 C 3.632812 17.253906 3.453125 16.066406 3.453125 14.867188 C 3.453125 8.316406 8.777344 2.992188 15.328125 2.992188 C 15.535156 2.992188 15.703125 3.160156 15.703125 3.363281 C 15.703125 3.570312 15.535156 3.738281 15.328125 3.738281 C 9.191406 3.738281 4.199219 8.730469 4.199219 14.867188 C 4.199219 15.996094 4.367188 17.105469 4.699219 18.175781 C 4.761719 18.371094 4.652344 18.578125 4.457031 18.640625 C 4.417969 18.648438 4.378906 18.65625 4.34375 18.65625 Z M 4.34375 18.65625 " fill-opacity="1" fill-rule="nonzero"/></g><path fill="#3d4b8d" d="M 10.855469 25.835938 C 10.808594 25.835938 10.757812 25.824219 10.710938 25.804688 C 7.878906 24.609375 5.570312 22.292969 4.378906 19.460938 C 4.300781 19.269531 4.386719 19.050781 4.574219 18.972656 C 4.761719 18.890625 4.980469 18.984375 5.0625 19.171875 C 6.179688 21.828125 8.34375 23.996094 11 25.121094 C 11.191406 25.199219 11.277344 25.417969 11.195312 25.605469 C 11.136719 25.75 11 25.835938 10.855469 25.835938 Z M 10.855469 25.835938 " fill-opacity="1" fill-rule="nonzero"/><g clip-path="url(#a56ebedda5)"><path fill="#3d4b8d" d="M 15.328125 26.742188 C 14.464844 26.742188 13.601562 26.648438 12.765625 26.464844 C 12.566406 26.421875 12.4375 26.21875 12.484375 26.019531 C 12.527344 25.820312 12.726562 25.691406 12.929688 25.738281 C 14.214844 26.023438 15.570312 26.074219 16.871094 25.894531 C 17.078125 25.863281 17.261719 26.007812 17.292969 26.210938 C 17.320312 26.414062 17.175781 26.601562 16.972656 26.628906 C 16.433594 26.703125 15.875 26.742188 15.328125 26.742188 Z M 15.328125 26.742188 " fill-opacity="1" fill-rule="nonzero"/></g><g clip-path="url(#6fc87d9e50)"><path fill="#3d4b8d" d="M 18.605469 26.265625 C 18.445312 26.265625 18.300781 26.160156 18.25 26 C 18.195312 25.800781 18.304688 25.597656 18.503906 25.539062 C 23.191406 24.140625 26.460938 19.753906 26.460938 14.867188 C 26.460938 14.660156 26.628906 14.492188 26.835938 14.492188 C 27.039062 14.492188 27.207031 14.660156 27.207031 14.867188 C 27.207031 20.082031 23.71875 24.757812 18.71875 26.25 C 18.675781 26.261719 18.640625 26.265625 18.605469 26.265625 Z M 18.605469 26.265625 " fill-opacity="1" fill-rule="nonzero"/></g><g clip-path="url(#f78ee56ec5)"><path fill="#3d4b8d" d="M 16.125 4.398438 C 15.480469 4.398438 14.957031 3.875 14.957031 3.230469 C 14.957031 2.585938 15.480469 2.066406 16.125 2.066406 C 16.769531 2.066406 17.292969 2.589844 17.292969 3.234375 C 17.292969 3.878906 16.769531 4.398438 16.125 4.398438 Z M 16.125 2.808594 C 15.890625 2.808594 15.703125 2.996094 15.703125 3.230469 C 15.703125 3.464844 15.890625 3.652344 16.125 3.652344 C 16.359375 3.652344 16.550781 3.464844 16.550781 3.230469 C 16.550781 2.996094 16.359375 2.808594 16.125 2.808594 Z M 16.125 2.808594 " fill-opacity="1" fill-rule="nonzero"/></g><path fill="#3d4b8d" d="M 26.832031 15.238281 C 26.1875 15.238281 25.664062 14.714844 25.664062 14.070312 C 25.664062 13.425781 26.1875 12.902344 26.832031 12.902344 C 27.476562 12.902344 28 13.425781 28 14.070312 C 28 14.714844 27.472656 15.238281 26.832031 15.238281 Z M 26.832031 13.648438 C 26.597656 13.648438 26.410156 13.835938 26.410156 14.074219 C 26.410156 14.304688 26.597656 14.496094 26.832031 14.496094 C 27.066406 14.496094 27.257812 14.304688 27.257812 14.074219 C 27.257812 13.835938 27.066406 13.648438 26.832031 13.648438 Z M 26.832031 13.648438 " fill-opacity="1" fill-rule="nonzero"/><path fill="#257aae" d="M 15.328125 24.6875 C 9.914062 24.6875 5.511719 20.28125 5.511719 14.867188 C 5.511719 14.664062 5.679688 14.496094 5.882812 14.496094 C 6.089844 14.496094 6.257812 14.664062 6.257812 14.867188 C 6.257812 19.871094 10.328125 23.945312 15.332031 23.945312 C 19.304688 23.945312 22.78125 21.394531 23.984375 17.605469 C 24.046875 17.410156 24.257812 17.300781 24.453125 17.367188 C 24.648438 17.425781 24.757812 17.636719 24.691406 17.832031 C 23.390625 21.929688 19.625 24.6875 15.328125 24.6875 Z M 15.328125 24.6875 " fill-opacity="1" fill-rule="nonzero"/><path fill="#257aae" d="M 24.679688 16.582031 C 24.664062 16.582031 24.644531 16.578125 24.628906 16.578125 C 24.425781 16.550781 24.28125 16.359375 24.3125 16.15625 C 24.375 15.734375 24.402344 15.296875 24.402344 14.863281 C 24.402344 9.859375 20.332031 5.789062 15.328125 5.789062 C 15.125 5.789062 14.957031 5.621094 14.957031 5.414062 C 14.957031 5.210938 15.125 5.042969 15.328125 5.042969 C 20.742188 5.042969 25.148438 9.449219 25.148438 14.863281 C 25.148438 15.328125 25.113281 15.800781 25.046875 16.261719 C 25.019531 16.449219 24.863281 16.582031 24.679688 16.582031 Z M 24.679688 16.582031 " fill-opacity="1" fill-rule="nonzero"/><path fill="#257aae" d="M 14.675781 6.585938 C 14.03125 6.585938 13.507812 6.0625 13.507812 5.417969 C 13.507812 4.773438 14.03125 4.25 14.675781 4.25 C 15.320312 4.25 15.84375 4.773438 15.84375 5.417969 C 15.839844 6.0625 15.320312 6.585938 14.675781 6.585938 Z M 14.675781 4.996094 C 14.441406 4.996094 14.25 5.183594 14.25 5.417969 C 14.25 5.652344 14.4375 5.84375 14.675781 5.84375 C 14.910156 5.84375 15.097656 5.652344 15.097656 5.417969 C 15.097656 5.183594 14.910156 4.996094 14.675781 4.996094 Z M 14.675781 4.996094 " fill-opacity="1" fill-rule="nonzero"/><path fill="#257aae" d="M 5.882812 15.238281 C 5.238281 15.238281 4.710938 14.714844 4.710938 14.070312 C 4.710938 13.425781 5.238281 12.902344 5.882812 12.902344 C 6.523438 12.902344 7.050781 13.425781 7.050781 14.070312 C 7.046875 14.714844 6.523438 15.238281 5.882812 15.238281 Z M 5.882812 13.648438 C 5.648438 13.648438 5.457031 13.835938 5.457031 14.074219 C 5.457031 14.304688 5.648438 14.496094 5.882812 14.496094 C 6.113281 14.496094 6.304688 14.304688 6.304688 14.074219 C 6.304688 13.835938 6.113281 13.648438 5.882812 13.648438 Z M 5.882812 13.648438 " fill-opacity="1" fill-rule="nonzero"/><path fill="#00defc" d="M 15.328125 18.515625 C 13.316406 18.515625 11.679688 16.878906 11.679688 14.867188 C 11.679688 14.660156 11.847656 14.492188 12.050781 14.492188 C 12.257812 14.492188 12.425781 14.660156 12.425781 14.867188 C 12.425781 16.46875 13.730469 17.773438 15.332031 17.773438 C 15.789062 17.773438 16.230469 17.667969 16.636719 17.464844 C 16.820312 17.371094 17.042969 17.445312 17.136719 17.628906 C 17.226562 17.8125 17.152344 18.035156 16.972656 18.128906 C 16.453125 18.386719 15.90625 18.515625 15.328125 18.515625 Z M 15.328125 18.515625 " fill-opacity="1" fill-rule="nonzero"/><path fill="#00defc" d="M 17.839844 17.339844 C 17.757812 17.339844 17.671875 17.3125 17.601562 17.253906 C 17.445312 17.121094 17.425781 16.890625 17.558594 16.730469 C 17.992188 16.210938 18.234375 15.546875 18.234375 14.867188 C 18.234375 13.265625 16.929688 11.960938 15.328125 11.960938 C 15.121094 11.960938 14.953125 11.792969 14.953125 11.589844 C 14.953125 11.382812 15.121094 11.214844 15.328125 11.214844 C 17.339844 11.214844 18.976562 12.851562 18.976562 14.867188 C 18.976562 15.71875 18.675781 16.550781 18.125 17.207031 C 18.054688 17.292969 17.949219 17.339844 17.839844 17.339844 Z M 17.839844 17.339844 " fill-opacity="1" fill-rule="nonzero"/><path fill="#00defc" d="M 12.050781 15.351562 C 11.40625 15.351562 10.878906 14.828125 10.878906 14.183594 C 10.878906 13.539062 11.40625 13.015625 12.050781 13.015625 C 12.691406 13.015625 13.21875 13.539062 13.21875 14.183594 C 13.21875 14.828125 12.691406 15.351562 12.050781 15.351562 Z M 12.050781 13.761719 C 11.816406 13.761719 11.625 13.949219 11.625 14.183594 C 11.625 14.417969 11.816406 14.605469 12.050781 14.605469 C 12.28125 14.605469 12.472656 14.417969 12.472656 14.183594 C 12.472656 13.949219 12.28125 13.761719 12.050781 13.761719 Z M 12.050781 13.761719 " fill-opacity="1" fill-rule="nonzero"/></svg>